<?xml version="1.0" encoding="UTF-8" standalone="no"?>
<!DOCTYPE svg PUBLIC "-//W3C//DTD SVG 1.1//EN"
 "http://www.w3.org/Graphics/SVG/1.1/DTD/svg11.dtd">
<!-- Generated by graphviz version 2.43.0 (0)
 -->
<!-- Pages: 1 -->
<svg width="1489pt" height="692pt"
 viewBox="0.00 0.00 1489.15 692.00" xmlns="http://www.w3.org/2000/svg" xmlns:xlink="http://www.w3.org/1999/xlink">
<g id="graph0" class="graph" transform="scale(1 1) rotate(0) translate(4 688)">
<polygon fill="white" stroke="transparent" points="-4,4 -4,-688 1485.15,-688 1485.15,4 -4,4"/>
<!-- $sdffce~292^FF~92 -->
<g id="node1" class="node">
<title>$sdffce~292^FF~92</title>
<ellipse fill="#f0f0f0" stroke="red" cx="564" cy="-594" rx="27" ry="18"/>
<text text-anchor="middle" x="564" y="-590.3" font-family="Times,serif" font-size="14.00" fill="red">FF</text>
</g>
<!-- new_n756_ -->
<g id="node2" class="node">
<title>new_n756_</title>
<ellipse fill="#eeeeee" stroke="#eeeeee" cx="594" cy="-522" rx="27" ry="18"/>
</g>
<!-- $sdffce~292^FF~92&#45;&gt;new_n756_ -->
<g id="edge1" class="edge">
<title>$sdffce~292^FF~92&#45;&gt;new_n756_</title>
<path fill="none" stroke="#eeeeee" d="M571.11,-576.41C574.66,-568.13 579.03,-557.92 583,-548.66"/>
<polygon fill="#eeeeee" stroke="#eeeeee" points="586.22,-550.04 586.94,-539.47 579.79,-547.28 586.22,-550.04"/>
</g>
<!-- new_n971_ -->
<g id="node3" class="node">
<title>new_n971_</title>
<ellipse fill="#f0f0f0" stroke="black" cx="670" cy="-90" rx="27" ry="18"/>
</g>
<!-- $sdffce~292^FF~92&#45;&gt;new_n971_ -->
<g id="edge2" class="edge">
<title>$sdffce~292^FF~92&#45;&gt;new_n971_</title>
<path fill="none" stroke="black" d="M561.08,-575.93C556.53,-546.37 549.15,-483.83 558,-432 566.57,-381.84 579.85,-372.25 596,-324 620.95,-249.45 648.53,-160.8 661.88,-117.48"/>
<polygon fill="black" stroke="black" points="665.29,-118.31 664.88,-107.73 658.6,-116.26 665.29,-118.31"/>
</g>
<!-- dummy^phi_n1__and_1__data__0__anchor__out -->
<g id="node28" class="node">
<title>dummy^phi_n1__and_1__data__0__anchor__out</title>
<ellipse fill="#eeeeee" stroke="#eeeeee" cx="598" cy="-450" rx="31.4" ry="18"/>
<text text-anchor="middle" x="598" y="-446.3" font-family="Times,serif" font-size="14.00" fill="#eeeeee">data</text>
</g>
<!-- new_n756_&#45;&gt;dummy^phi_n1__and_1__data__0__anchor__out -->
<g id="edge25" class="edge">
<title>new_n756_&#45;&gt;dummy^phi_n1__and_1__data__0__anchor__out</title>
<path fill="none" stroke="#eeeeee" d="M594.99,-503.7C595.43,-495.98 595.96,-486.71 596.45,-478.11"/>
<polygon fill="#eeeeee" stroke="#eeeeee" points="599.95,-478.29 597.02,-468.1 592.96,-477.89 599.95,-478.29"/>
</g>
<!-- n952 -->
<g id="node59" class="node">
<title>n952</title>
<ellipse fill="#f0f0f0" stroke="blue" cx="706" cy="-18" rx="27" ry="18"/>
</g>
<!-- new_n971_&#45;&gt;n952 -->
<g id="edge70" class="edge">
<title>new_n971_&#45;&gt;n952</title>
<path fill="none" stroke="black" d="M678.35,-72.76C682.71,-64.28 688.15,-53.71 693.04,-44.2"/>
<polygon fill="black" stroke="black" points="696.23,-45.64 697.7,-35.15 690.01,-42.44 696.23,-45.64"/>
</g>
<!-- $dff~195^FF~46 -->
<g id="node4" class="node">
<title>$dff~195^FF~46</title>
<ellipse fill="#c0ffff" stroke="red" cx="1284" cy="-666" rx="27" ry="18"/>
<text text-anchor="middle" x="1284" y="-662.3" font-family="Times,serif" font-size="14.00" fill="red">FF</text>
</g>
<!-- dummy^fork_2__xor_3__valid__0__anchor__out -->
<g id="node5" class="node">
<title>dummy^fork_2__xor_3__valid__0__anchor__out</title>
<ellipse fill="#eeeeee" stroke="#eeeeee" cx="1216" cy="-234" rx="33.29" ry="18"/>
<text text-anchor="middle" x="1216" y="-230.3" font-family="Times,serif" font-size="14.00" fill="#eeeeee">valid</text>
</g>
<!-- $dff~195^FF~46&#45;&gt;dummy^fork_2__xor_3__valid__0__anchor__out -->
<g id="edge3" class="edge">
<title>$dff~195^FF~46&#45;&gt;dummy^fork_2__xor_3__valid__0__anchor__out</title>
<path fill="none" stroke="#eeeeee" d="M1282.51,-648.03C1279.84,-618.61 1273.77,-556.3 1266,-504 1252.75,-414.89 1231.69,-310.17 1221.67,-261.88"/>
<polygon fill="#eeeeee" stroke="#eeeeee" points="1225.06,-261 1219.59,-251.92 1218.2,-262.43 1225.06,-261"/>
</g>
<!-- new_n845_ -->
<g id="node6" class="node">
<title>new_n845_</title>
<ellipse fill="#c0ffff" stroke="black" cx="1211" cy="-594" rx="27" ry="18"/>
</g>
<!-- $dff~195^FF~46&#45;&gt;new_n845_ -->
<g id="edge4" class="edge">
<title>$dff~195^FF~46&#45;&gt;new_n845_</title>
<path fill="none" stroke="black" d="M1269.23,-650.83C1258.84,-640.87 1244.76,-627.37 1233.04,-616.14"/>
<polygon fill="black" stroke="black" points="1235.39,-613.54 1225.75,-609.14 1230.55,-618.59 1235.39,-613.54"/>
</g>
<!-- dummy^and_1__fork_2__ready__0__anchor__out -->
<g id="node49" class="node">
<title>dummy^and_1__fork_2__ready__0__anchor__out</title>
<ellipse fill="#c0ffff" stroke="black" cx="1220" cy="-522" rx="37.09" ry="18"/>
<text text-anchor="middle" x="1220" y="-518.3" font-family="Times,serif" font-size="14.00">ready</text>
</g>
<!-- new_n845_&#45;&gt;dummy^and_1__fork_2__ready__0__anchor__out -->
<g id="edge54" class="edge">
<title>new_n845_&#45;&gt;dummy^and_1__fork_2__ready__0__anchor__out</title>
<path fill="none" stroke="black" d="M1213.18,-576.05C1214.17,-568.35 1215.37,-559.03 1216.48,-550.36"/>
<polygon fill="black" stroke="black" points="1219.98,-550.64 1217.78,-540.28 1213.03,-549.75 1219.98,-550.64"/>
</g>
<!-- n1142 -->
<g id="node52" class="node">
<title>n1142</title>
<ellipse fill="#eeeeee" stroke="#eeeeee" cx="1216" cy="-90" rx="27" ry="18"/>
</g>
<!-- new_n845_&#45;&gt;n1142 -->
<g id="edge55" class="edge">
<title>new_n845_&#45;&gt;n1142</title>
<path fill="none" stroke="#eeeeee" d="M1197.88,-577.76C1189.85,-567.67 1179.99,-553.79 1174,-540 1157.88,-502.9 1155,-491.45 1155,-451 1155,-451 1155,-451 1155,-233 1155,-188.64 1180.44,-142.36 1198.46,-115.14"/>
<polygon fill="#eeeeee" stroke="#eeeeee" points="1201.49,-116.9 1204.24,-106.66 1195.71,-112.95 1201.49,-116.9"/>
</g>
<!-- $dff~190^FF~45 -->
<g id="node7" class="node">
<title>$dff~190^FF~45</title>
<ellipse fill="#c0ffff" stroke="red" cx="1448" cy="-666" rx="27" ry="18"/>
<text text-anchor="middle" x="1448" y="-662.3" font-family="Times,serif" font-size="14.00" fill="red">FF</text>
</g>
<!-- dummy^fork_2__zext_2__valid__0__anchor__out -->
<g id="node8" class="node">
<title>dummy^fork_2__zext_2__valid__0__anchor__out</title>
<ellipse fill="#eeeeee" stroke="#eeeeee" cx="1448" cy="-234" rx="33.29" ry="18"/>
<text text-anchor="middle" x="1448" y="-230.3" font-family="Times,serif" font-size="14.00" fill="#eeeeee">valid</text>
</g>
<!-- $dff~190^FF~45&#45;&gt;dummy^fork_2__zext_2__valid__0__anchor__out -->
<g id="edge5" class="edge">
<title>$dff~190^FF~45&#45;&gt;dummy^fork_2__zext_2__valid__0__anchor__out</title>
<path fill="none" stroke="#eeeeee" d="M1448,-647.95C1448,-621.29 1448,-568.11 1448,-523 1448,-523 1448,-523 1448,-377 1448,-337 1448,-290.65 1448,-262.08"/>
<polygon fill="#eeeeee" stroke="#eeeeee" points="1451.5,-262.05 1448,-252.05 1444.5,-262.05 1451.5,-262.05"/>
</g>
<!-- new_n844_ -->
<g id="node9" class="node">
<title>new_n844_</title>
<ellipse fill="#c0ffff" stroke="black" cx="1377" cy="-594" rx="27" ry="18"/>
</g>
<!-- $dff~190^FF~45&#45;&gt;new_n844_ -->
<g id="edge6" class="edge">
<title>$dff~190^FF~45&#45;&gt;new_n844_</title>
<path fill="none" stroke="black" d="M1433.29,-650.5C1423.39,-640.73 1410.16,-627.69 1399.01,-616.7"/>
<polygon fill="black" stroke="black" points="1401.27,-614.01 1391.69,-609.49 1396.36,-619 1401.27,-614.01"/>
</g>
<!-- new_n844_&#45;&gt;dummy^and_1__fork_2__ready__0__anchor__out -->
<g id="edge51" class="edge">
<title>new_n844_&#45;&gt;dummy^and_1__fork_2__ready__0__anchor__out</title>
<path fill="none" stroke="black" d="M1355.17,-583.27C1329.47,-571.81 1286.43,-552.62 1255.82,-538.97"/>
<polygon fill="black" stroke="black" points="1256.91,-535.63 1246.36,-534.75 1254.06,-542.02 1256.91,-535.63"/>
</g>
<!-- n1137 -->
<g id="node50" class="node">
<title>n1137</title>
<ellipse fill="#eeeeee" stroke="#eeeeee" cx="1340" cy="-90" rx="27" ry="18"/>
</g>
<!-- new_n844_&#45;&gt;n1137 -->
<g id="edge52" class="edge">
<title>new_n844_&#45;&gt;n1137</title>
<path fill="none" stroke="#eeeeee" d="M1378.98,-575.98C1381.89,-549.36 1387,-496.23 1387,-451 1387,-451 1387,-451 1387,-233 1387,-190.26 1367.57,-143.78 1353.7,-116.04"/>
<polygon fill="#eeeeee" stroke="#eeeeee" points="1356.75,-114.33 1349.06,-107.04 1350.53,-117.53 1356.75,-114.33"/>
</g>
<!-- $sdff~295^FF~94 -->
<g id="node10" class="node">
<title>$sdff~295^FF~94</title>
<ellipse fill="#f0f0f0" stroke="red" cx="732" cy="-594" rx="27" ry="18"/>
<text text-anchor="middle" x="732" y="-590.3" font-family="Times,serif" font-size="14.00" fill="red">FF</text>
</g>
<!-- $sdff~295^FF~94&#45;&gt;new_n756_ -->
<g id="edge7" class="edge">
<title>$sdff~295^FF~94&#45;&gt;new_n756_</title>
<path fill="none" stroke="#eeeeee" d="M711.04,-582.37C687.94,-570.65 650.58,-551.7 624.29,-538.37"/>
<polygon fill="#eeeeee" stroke="#eeeeee" points="625.66,-535.13 615.16,-533.73 622.49,-541.38 625.66,-535.13"/>
</g>
<!-- new_n757_ -->
<g id="node11" class="node">
<title>new_n757_</title>
<ellipse fill="#f0f0f0" stroke="black" cx="666" cy="-522" rx="27" ry="18"/>
</g>
<!-- $sdff~295^FF~94&#45;&gt;new_n757_ -->
<g id="edge8" class="edge">
<title>$sdff~295^FF~94&#45;&gt;new_n757_</title>
<path fill="none" stroke="black" d="M718,-578.15C708.99,-568.6 697.11,-555.99 686.98,-545.25"/>
<polygon fill="black" stroke="black" points="689.38,-542.7 679.98,-537.82 684.29,-547.5 689.38,-542.7"/>
</g>
<!-- dummy^phi_n1__and_1__valid__0__anchor__out -->
<g id="node12" class="node">
<title>dummy^phi_n1__and_1__valid__0__anchor__out</title>
<ellipse fill="#f0f0f0" stroke="black" cx="912" cy="-522" rx="33.29" ry="18"/>
<text text-anchor="middle" x="912" y="-518.3" font-family="Times,serif" font-size="14.00">valid</text>
</g>
<!-- $sdff~295^FF~94&#45;&gt;dummy^phi_n1__and_1__valid__0__anchor__out -->
<g id="edge9" class="edge">
<title>$sdff~295^FF~94&#45;&gt;dummy^phi_n1__and_1__valid__0__anchor__out</title>
<path fill="none" stroke="black" d="M754.8,-584.13C785.41,-572.23 840.12,-550.96 876.24,-536.91"/>
<polygon fill="black" stroke="black" points="877.84,-540.04 885.9,-533.15 875.31,-533.51 877.84,-540.04"/>
</g>
<!-- dummy^branch_0__phi_n1__ready__0__anchor__out -->
<g id="node13" class="node">
<title>dummy^branch_0__phi_n1__ready__0__anchor__out</title>
<ellipse fill="#eeeeee" stroke="#eeeeee" cx="786" cy="-522" rx="37.09" ry="18"/>
<text text-anchor="middle" x="786" y="-518.3" font-family="Times,serif" font-size="14.00" fill="#eeeeee">ready</text>
</g>
<!-- $sdff~295^FF~94&#45;&gt;dummy^branch_0__phi_n1__ready__0__anchor__out -->
<g id="edge10" class="edge">
<title>$sdff~295^FF~94&#45;&gt;dummy^branch_0__phi_n1__ready__0__anchor__out</title>
<path fill="none" stroke="#eeeeee" d="M743.98,-577.46C750.88,-568.53 759.69,-557.11 767.46,-547.04"/>
<polygon fill="#eeeeee" stroke="#eeeeee" points="770.34,-549.03 773.67,-538.98 764.8,-544.76 770.34,-549.03"/>
</g>
<!-- new_n972_1_ -->
<g id="node14" class="node">
<title>new_n972_1_</title>
<ellipse fill="#f0f0f0" stroke="black" cx="721" cy="-162" rx="27" ry="18"/>
</g>
<!-- $sdff~295^FF~94&#45;&gt;new_n972_1_ -->
<g id="edge11" class="edge">
<title>$sdff~295^FF~94&#45;&gt;new_n972_1_</title>
<path fill="none" stroke="black" d="M729.83,-575.98C726.62,-549.37 721,-496.25 721,-451 721,-451 721,-451 721,-305 721,-265 721,-218.65 721,-190.08"/>
<polygon fill="black" stroke="black" points="724.5,-190.05 721,-180.05 717.5,-190.05 724.5,-190.05"/>
</g>
<!-- new_n757_&#45;&gt;dummy^phi_n1__and_1__data__0__anchor__out -->
<g id="edge27" class="edge">
<title>new_n757_&#45;&gt;dummy^phi_n1__and_1__data__0__anchor__out</title>
<path fill="none" stroke="#eeeeee" d="M651.91,-506.5C642.64,-496.96 630.33,-484.28 619.81,-473.46"/>
<polygon fill="#eeeeee" stroke="#eeeeee" points="622.02,-470.7 612.54,-465.97 617,-475.58 622.02,-470.7"/>
</g>
<!-- new_n968_ -->
<g id="node30" class="node">
<title>new_n968_</title>
<ellipse fill="#f0f0f0" stroke="black" cx="742" cy="-90" rx="27" ry="18"/>
</g>
<!-- new_n757_&#45;&gt;new_n968_ -->
<g id="edge28" class="edge">
<title>new_n757_&#45;&gt;new_n968_</title>
<path fill="none" stroke="black" d="M666,-503.95C666,-477.29 666,-424.11 666,-379 666,-379 666,-379 666,-233 666,-192.55 665.04,-179.18 685,-144 692.49,-130.79 704.39,-118.97 715.38,-109.86"/>
<polygon fill="black" stroke="black" points="717.83,-112.38 723.52,-103.44 713.5,-106.89 717.83,-112.38"/>
</g>
<!-- dummy^phi_n1__and_1__valid__0__anchor__in -->
<g id="node43" class="node">
<title>dummy^phi_n1__and_1__valid__0__anchor__in</title>
<ellipse fill="#eeeeee" stroke="#eeeeee" cx="876" cy="-450" rx="33.29" ry="18"/>
<text text-anchor="middle" x="876" y="-446.3" font-family="Times,serif" font-size="14.00" fill="#eeeeee">valid</text>
</g>
<!-- dummy^phi_n1__and_1__valid__0__anchor__out&#45;&gt;dummy^phi_n1__and_1__valid__0__anchor__in -->
<g id="edge42" class="edge">
<title>dummy^phi_n1__and_1__valid__0__anchor__out&#45;&gt;dummy^phi_n1__and_1__valid__0__anchor__in</title>
<path fill="none" stroke="#eeeeee" stroke-width="2" d="M903.47,-504.41C899.16,-496.04 893.85,-485.71 889.05,-476.37"/>
<polygon fill="#eeeeee" stroke="#eeeeee" stroke-width="2" points="892.16,-474.76 884.47,-467.47 885.93,-477.96 892.16,-474.76"/>
<text text-anchor="middle" x="836.39" y="-489.58" font-family="Times,serif" font-size="14.00" fill="#eeeeee">phi_n1 &#45;&gt; and_1</text>
</g>
<!-- n957 -->
<g id="node44" class="node">
<title>n957</title>
<ellipse fill="#f0f0f0" stroke="black" cx="967" cy="-162" rx="27" ry="18"/>
</g>
<!-- dummy^phi_n1__and_1__valid__0__anchor__out&#45;&gt;n957 -->
<g id="edge43" class="edge">
<title>dummy^phi_n1__and_1__valid__0__anchor__out&#45;&gt;n957</title>
<path fill="none" stroke="black" d="M945.2,-520.75C985.98,-518.59 1054.59,-508.63 1094,-468 1122.45,-438.67 1117,-419.86 1117,-379 1117,-379 1117,-379 1117,-305 1117,-240.52 1043,-196.57 998.95,-176.11"/>
<polygon fill="black" stroke="black" points="1000.34,-172.9 989.78,-171.99 997.47,-179.28 1000.34,-172.9"/>
</g>
<!-- new_n972_1_&#45;&gt;new_n971_ -->
<g id="edge69" class="edge">
<title>new_n972_1_&#45;&gt;new_n971_</title>
<path fill="none" stroke="black" d="M709.68,-145.46C703.08,-136.4 694.62,-124.79 687.2,-114.61"/>
<polygon fill="black" stroke="black" points="690,-112.51 681.29,-106.49 684.35,-116.64 690,-112.51"/>
</g>
<!-- $sdff~286^FF~78 -->
<g id="node15" class="node">
<title>$sdff~286^FF~78</title>
<ellipse fill="#ffc0ff" stroke="red" cx="175" cy="-594" rx="27" ry="18"/>
<text text-anchor="middle" x="175" y="-590.3" font-family="Times,serif" font-size="14.00" fill="red">FF</text>
</g>
<!-- new_n669_ -->
<g id="node16" class="node">
<title>new_n669_</title>
<ellipse fill="#eeeeee" stroke="#eeeeee" cx="93" cy="-522" rx="27" ry="18"/>
</g>
<!-- $sdff~286^FF~78&#45;&gt;new_n669_ -->
<g id="edge12" class="edge">
<title>$sdff~286^FF~78&#45;&gt;new_n669_</title>
<path fill="none" stroke="#eeeeee" d="M158.8,-579.17C146.82,-568.94 130.31,-554.85 116.82,-543.34"/>
<polygon fill="#eeeeee" stroke="#eeeeee" points="118.77,-540.39 108.89,-536.56 114.22,-545.72 118.77,-540.39"/>
</g>
<!-- new_n670_ -->
<g id="node17" class="node">
<title>new_n670_</title>
<ellipse fill="#eeeeee" stroke="#eeeeee" cx="257" cy="-522" rx="27" ry="18"/>
</g>
<!-- $sdff~286^FF~78&#45;&gt;new_n670_ -->
<g id="edge13" class="edge">
<title>$sdff~286^FF~78&#45;&gt;new_n670_</title>
<path fill="none" stroke="#eeeeee" d="M191.2,-579.17C203.18,-568.94 219.69,-554.85 233.18,-543.34"/>
<polygon fill="#eeeeee" stroke="#eeeeee" points="235.78,-545.72 241.11,-536.56 231.23,-540.39 235.78,-545.72"/>
</g>
<!-- dummy^phi_n0__and_1__valid__0__anchor__out -->
<g id="node18" class="node">
<title>dummy^phi_n0__and_1__valid__0__anchor__out</title>
<ellipse fill="#ffc0ff" stroke="black" cx="470" cy="-522" rx="33.29" ry="18"/>
<text text-anchor="middle" x="470" y="-518.3" font-family="Times,serif" font-size="14.00">valid</text>
</g>
<!-- $sdff~286^FF~78&#45;&gt;dummy^phi_n0__and_1__valid__0__anchor__out -->
<g id="edge14" class="edge">
<title>$sdff~286^FF~78&#45;&gt;dummy^phi_n0__and_1__valid__0__anchor__out</title>
<path fill="none" stroke="black" d="M196.97,-583.25C203.35,-580.66 210.38,-578.02 217,-576 290.1,-553.74 377.88,-537.65 428.48,-529.36"/>
<polygon fill="black" stroke="black" points="429.07,-532.81 438.39,-527.76 427.96,-525.9 429.07,-532.81"/>
</g>
<!-- dummy^branch_1__phi_n0__ready__0__anchor__out -->
<g id="node19" class="node">
<title>dummy^branch_1__phi_n0__ready__0__anchor__out</title>
<ellipse fill="#eeeeee" stroke="#eeeeee" cx="175" cy="-522" rx="37.09" ry="18"/>
<text text-anchor="middle" x="175" y="-518.3" font-family="Times,serif" font-size="14.00" fill="#eeeeee">ready</text>
</g>
<!-- $sdff~286^FF~78&#45;&gt;dummy^branch_1__phi_n0__ready__0__anchor__out -->
<g id="edge15" class="edge">
<title>$sdff~286^FF~78&#45;&gt;dummy^branch_1__phi_n0__ready__0__anchor__out</title>
<path fill="none" stroke="#eeeeee" d="M175,-575.7C175,-567.98 175,-558.71 175,-550.11"/>
<polygon fill="#eeeeee" stroke="#eeeeee" points="178.5,-550.1 175,-540.1 171.5,-550.1 178.5,-550.1"/>
</g>
<!-- new_n939_ -->
<g id="node20" class="node">
<title>new_n939_</title>
<ellipse fill="#eeeeee" stroke="#eeeeee" cx="120" cy="-162" rx="27" ry="18"/>
</g>
<!-- $sdff~286^FF~78&#45;&gt;new_n939_ -->
<g id="edge16" class="edge">
<title>$sdff~286^FF~78&#45;&gt;new_n939_</title>
<path fill="none" stroke="#eeeeee" d="M149.2,-588.49C122.06,-582.34 80.14,-568.65 57,-540 31.58,-508.54 38,-491.45 38,-451 38,-451 38,-451 38,-305 38,-257.01 73.55,-210.66 97.84,-184.59"/>
<polygon fill="#eeeeee" stroke="#eeeeee" points="100.56,-186.81 104.96,-177.17 95.51,-181.96 100.56,-186.81"/>
</g>
<!-- dummy^phi_n0__and_1__data__0__anchor__out -->
<g id="node23" class="node">
<title>dummy^phi_n0__and_1__data__0__anchor__out</title>
<ellipse fill="#eeeeee" stroke="#eeeeee" cx="198" cy="-450" rx="31.4" ry="18"/>
<text text-anchor="middle" x="198" y="-446.3" font-family="Times,serif" font-size="14.00" fill="#eeeeee">data</text>
</g>
<!-- new_n669_&#45;&gt;dummy^phi_n0__and_1__data__0__anchor__out -->
<g id="edge19" class="edge">
<title>new_n669_&#45;&gt;dummy^phi_n0__and_1__data__0__anchor__out</title>
<path fill="none" stroke="#eeeeee" d="M111.77,-508.49C127.89,-497.74 151.37,-482.09 169.76,-469.83"/>
<polygon fill="#eeeeee" stroke="#eeeeee" points="171.94,-472.58 178.32,-464.12 168.06,-466.75 171.94,-472.58"/>
</g>
<!-- new_n670_&#45;&gt;dummy^phi_n0__and_1__data__0__anchor__out -->
<g id="edge21" class="edge">
<title>new_n670_&#45;&gt;dummy^phi_n0__and_1__data__0__anchor__out</title>
<path fill="none" stroke="#eeeeee" d="M244.2,-505.81C236.5,-496.67 226.53,-484.85 217.83,-474.52"/>
<polygon fill="#eeeeee" stroke="#eeeeee" points="220.31,-472.03 211.19,-466.64 214.95,-476.55 220.31,-472.03"/>
</g>
<!-- new_n935_ -->
<g id="node25" class="node">
<title>new_n935_</title>
<ellipse fill="#eeeeee" stroke="#eeeeee" cx="257" cy="-90" rx="27" ry="18"/>
</g>
<!-- new_n670_&#45;&gt;new_n935_ -->
<g id="edge22" class="edge">
<title>new_n670_&#45;&gt;new_n935_</title>
<path fill="none" stroke="#eeeeee" d="M257,-503.95C257,-477.29 257,-424.11 257,-379 257,-379 257,-379 257,-233 257,-193 257,-146.65 257,-118.08"/>
<polygon fill="#eeeeee" stroke="#eeeeee" points="260.5,-118.05 257,-108.05 253.5,-118.05 260.5,-118.05"/>
</g>
<!-- dummy^phi_n0__and_1__valid__0__anchor__in -->
<g id="node37" class="node">
<title>dummy^phi_n0__and_1__valid__0__anchor__in</title>
<ellipse fill="#ffffc4" stroke="black" cx="1052" cy="-450" rx="33.29" ry="18"/>
<text text-anchor="middle" x="1052" y="-446.3" font-family="Times,serif" font-size="14.00">valid</text>
</g>
<!-- dummy^phi_n0__and_1__valid__0__anchor__out&#45;&gt;dummy^phi_n0__and_1__valid__0__anchor__in -->
<g id="edge36" class="edge">
<title>dummy^phi_n0__and_1__valid__0__anchor__out&#45;&gt;dummy^phi_n0__and_1__valid__0__anchor__in</title>
<path fill="none" stroke="blue" stroke-width="2" d="M500,-514.34C516.95,-510.8 538.57,-506.64 558,-504 757.69,-476.85 813.88,-514.34 1010,-468 1012.64,-467.38 1015.32,-466.61 1018,-465.76"/>
<polygon fill="blue" stroke="blue" stroke-width="2" points="1019.3,-469.01 1027.54,-462.36 1016.94,-462.42 1019.3,-469.01"/>
<text text-anchor="middle" x="706.18" y="-481.87" font-family="Times,serif" font-size="14.00" fill="blue">phi_n0 &#45;&gt; and_1</text>
</g>
<!-- n932 -->
<g id="node38" class="node">
<title>n932</title>
<ellipse fill="#eeeeee" stroke="#eeeeee" cx="485" cy="-162" rx="27" ry="18"/>
</g>
<!-- dummy^phi_n0__and_1__valid__0__anchor__out&#45;&gt;n932 -->
<g id="edge37" class="edge">
<title>dummy^phi_n0__and_1__valid__0__anchor__out&#45;&gt;n932</title>
<path fill="none" stroke="#eeeeee" d="M472.12,-503.64C474.97,-479.54 479.91,-434.53 482,-396 486.04,-321.71 485.82,-233.9 485.38,-190.35"/>
<polygon fill="#eeeeee" stroke="#eeeeee" points="488.88,-190.22 485.27,-180.26 481.88,-190.3 488.88,-190.22"/>
</g>
<!-- new_n938_ -->
<g id="node22" class="node">
<title>new_n938_</title>
<ellipse fill="#eeeeee" stroke="#eeeeee" cx="120" cy="-90" rx="27" ry="18"/>
</g>
<!-- new_n939_&#45;&gt;new_n938_ -->
<g id="edge78" class="edge">
<title>new_n939_&#45;&gt;new_n938_</title>
<path fill="none" stroke="#eeeeee" d="M120,-143.7C120,-135.98 120,-126.71 120,-118.11"/>
<polygon fill="#eeeeee" stroke="#eeeeee" points="123.5,-118.1 120,-108.1 116.5,-118.1 123.5,-118.1"/>
</g>
<!-- $sdffce~283^FF~63 -->
<g id="node21" class="node">
<title>$sdffce~283^FF~63</title>
<ellipse fill="#eeeeee" stroke="#eeeeee" cx="46" cy="-594" rx="27" ry="18"/>
<text text-anchor="middle" x="46" y="-590.3" font-family="Times,serif" font-size="14.00" fill="#eeeeee">FF</text>
</g>
<!-- $sdffce~283^FF~63&#45;&gt;new_n669_ -->
<g id="edge17" class="edge">
<title>$sdffce~283^FF~63&#45;&gt;new_n669_</title>
<path fill="none" stroke="#eeeeee" d="M56.67,-577.12C62.55,-568.34 69.99,-557.26 76.61,-547.42"/>
<polygon fill="#eeeeee" stroke="#eeeeee" points="79.71,-549.07 82.38,-538.82 73.9,-545.17 79.71,-549.07"/>
</g>
<!-- $sdffce~283^FF~63&#45;&gt;new_n938_ -->
<g id="edge18" class="edge">
<title>$sdffce~283^FF~63&#45;&gt;new_n938_</title>
<path fill="none" stroke="#eeeeee" d="M37.13,-576.94C23.76,-551.18 0,-498.68 0,-451 0,-451 0,-451 0,-233 0,-176.61 55.88,-131.06 91.38,-107.81"/>
<polygon fill="#eeeeee" stroke="#eeeeee" points="93.35,-110.7 99.91,-102.39 89.6,-104.79 93.35,-110.7"/>
</g>
<!-- n902 -->
<g id="node60" class="node">
<title>n902</title>
<ellipse fill="#eeeeee" stroke="#eeeeee" cx="221" cy="-18" rx="27" ry="18"/>
</g>
<!-- new_n938_&#45;&gt;n902 -->
<g id="edge79" class="edge">
<title>new_n938_&#45;&gt;n902</title>
<path fill="none" stroke="#eeeeee" d="M138.06,-76.49C153.76,-65.6 176.72,-49.69 194.5,-37.37"/>
<polygon fill="#eeeeee" stroke="#eeeeee" points="196.53,-40.22 202.76,-31.64 192.55,-34.46 196.53,-40.22"/>
</g>
<!-- dummy^phi_n0__and_1__data__0__anchor__in -->
<g id="node26" class="node">
<title>dummy^phi_n0__and_1__data__0__anchor__in</title>
<ellipse fill="#eeeeee" stroke="#eeeeee" cx="362" cy="-378" rx="31.4" ry="18"/>
<text text-anchor="middle" x="362" y="-374.3" font-family="Times,serif" font-size="14.00" fill="#eeeeee">data</text>
</g>
<!-- dummy^phi_n0__and_1__data__0__anchor__out&#45;&gt;dummy^phi_n0__and_1__data__0__anchor__in -->
<g id="edge23" class="edge">
<title>dummy^phi_n0__and_1__data__0__anchor__out&#45;&gt;dummy^phi_n0__and_1__data__0__anchor__in</title>
<path fill="none" stroke="#eeeeee" stroke-width="2" d="M222.55,-438.52C250.65,-426.53 296.84,-406.81 328.3,-393.39"/>
<polygon fill="#eeeeee" stroke="#eeeeee" stroke-width="2" points="329.72,-396.58 337.55,-389.44 326.98,-390.14 329.72,-396.58"/>
<text text-anchor="middle" x="222.46" y="-417.82" font-family="Times,serif" font-size="14.00" fill="#eeeeee">phi_n0 &#45;&gt; and_1</text>
</g>
<!-- dummy^branch_1__phi_n0__data__0__anchor__in -->
<g id="node24" class="node">
<title>dummy^branch_1__phi_n0__data__0__anchor__in</title>
<ellipse fill="#eeeeee" stroke="#eeeeee" cx="257" cy="-594" rx="31.4" ry="18"/>
<text text-anchor="middle" x="257" y="-590.3" font-family="Times,serif" font-size="14.00" fill="#eeeeee">data</text>
</g>
<!-- dummy^branch_1__phi_n0__data__0__anchor__in&#45;&gt;new_n670_ -->
<g id="edge20" class="edge">
<title>dummy^branch_1__phi_n0__data__0__anchor__in&#45;&gt;new_n670_</title>
<path fill="none" stroke="#eeeeee" d="M257,-575.7C257,-567.98 257,-558.71 257,-550.11"/>
<polygon fill="#eeeeee" stroke="#eeeeee" points="260.5,-550.1 257,-540.1 253.5,-550.1 260.5,-550.1"/>
</g>
<!-- new_n935_&#45;&gt;n902 -->
<g id="edge80" class="edge">
<title>new_n935_&#45;&gt;n902</title>
<path fill="none" stroke="#eeeeee" d="M248.65,-72.76C244.29,-64.28 238.85,-53.71 233.96,-44.2"/>
<polygon fill="#eeeeee" stroke="#eeeeee" points="236.99,-42.44 229.3,-35.15 230.77,-45.64 236.99,-42.44"/>
</g>
<!-- dummy^and_1__fork_2__data__0__anchor__out -->
<g id="node27" class="node">
<title>dummy^and_1__fork_2__data__0__anchor__out</title>
<ellipse fill="#eeeeee" stroke="#eeeeee" cx="397" cy="-306" rx="31.4" ry="18"/>
<text text-anchor="middle" x="397" y="-302.3" font-family="Times,serif" font-size="14.00" fill="#eeeeee">data</text>
</g>
<!-- dummy^phi_n0__and_1__data__0__anchor__in&#45;&gt;dummy^and_1__fork_2__data__0__anchor__out -->
<g id="edge24" class="edge">
<title>dummy^phi_n0__and_1__data__0__anchor__in&#45;&gt;dummy^and_1__fork_2__data__0__anchor__out</title>
<path fill="none" stroke="#eeeeee" d="M370.29,-360.41C374.44,-352.13 379.54,-341.92 384.17,-332.66"/>
<polygon fill="#eeeeee" stroke="#eeeeee" points="387.42,-333.98 388.77,-323.47 381.16,-330.85 387.42,-333.98"/>
</g>
<!-- dummy^and_1__fork_2__data__0__anchor__in -->
<g id="node32" class="node">
<title>dummy^and_1__fork_2__data__0__anchor__in</title>
<ellipse fill="#eeeeee" stroke="#eeeeee" cx="397" cy="-234" rx="31.4" ry="18"/>
<text text-anchor="middle" x="397" y="-230.3" font-family="Times,serif" font-size="14.00" fill="#eeeeee">data</text>
</g>
<!-- dummy^and_1__fork_2__data__0__anchor__out&#45;&gt;dummy^and_1__fork_2__data__0__anchor__in -->
<g id="edge31" class="edge">
<title>dummy^and_1__fork_2__data__0__anchor__out&#45;&gt;dummy^and_1__fork_2__data__0__anchor__in</title>
<path fill="none" stroke="#eeeeee" stroke-width="2" d="M397,-287.7C397,-279.98 397,-270.71 397,-262.11"/>
<polygon fill="#eeeeee" stroke="#eeeeee" stroke-width="2" points="400.5,-262.1 397,-252.1 393.5,-262.1 400.5,-262.1"/>
<text text-anchor="middle" x="341" y="-273.69" font-family="Times,serif" font-size="14.00" fill="#eeeeee">and_1 &#45;&gt; fork_2</text>
</g>
<!-- dummy^phi_n1__and_1__data__0__anchor__in -->
<g id="node31" class="node">
<title>dummy^phi_n1__and_1__data__0__anchor__in</title>
<ellipse fill="#eeeeee" stroke="#eeeeee" cx="442" cy="-378" rx="31.4" ry="18"/>
<text text-anchor="middle" x="442" y="-374.3" font-family="Times,serif" font-size="14.00" fill="#eeeeee">data</text>
</g>
<!-- dummy^phi_n1__and_1__data__0__anchor__out&#45;&gt;dummy^phi_n1__and_1__data__0__anchor__in -->
<g id="edge29" class="edge">
<title>dummy^phi_n1__and_1__data__0__anchor__out&#45;&gt;dummy^phi_n1__and_1__data__0__anchor__in</title>
<path fill="none" stroke="#eeeeee" stroke-width="2" d="M573.97,-438.22C547.55,-426.36 504.94,-407.24 475.31,-393.95"/>
<polygon fill="#eeeeee" stroke="#eeeeee" stroke-width="2" points="476.36,-390.58 465.8,-389.68 473.5,-396.97 476.36,-390.58"/>
<text text-anchor="middle" x="462.54" y="-417.82" font-family="Times,serif" font-size="14.00" fill="#eeeeee">phi_n1 &#45;&gt; and_1</text>
</g>
<!-- dummy^branch_0__phi_n1__data__0__anchor__in -->
<g id="node29" class="node">
<title>dummy^branch_0__phi_n1__data__0__anchor__in</title>
<ellipse fill="#f0f0f0" stroke="red" cx="656" cy="-594" rx="31.4" ry="18"/>
<text text-anchor="middle" x="656" y="-590.3" font-family="Times,serif" font-size="14.00" fill="red">data</text>
</g>
<!-- dummy^branch_0__phi_n1__data__0__anchor__in&#45;&gt;new_n757_ -->
<g id="edge26" class="edge">
<title>dummy^branch_0__phi_n1__data__0__anchor__in&#45;&gt;new_n757_</title>
<path fill="none" stroke="black" d="M658.47,-575.7C659.57,-567.98 660.9,-558.71 662.13,-550.11"/>
<polygon fill="black" stroke="black" points="665.61,-550.5 663.56,-540.1 658.68,-549.51 665.61,-550.5"/>
</g>
<!-- new_n968_&#45;&gt;n952 -->
<g id="edge73" class="edge">
<title>new_n968_&#45;&gt;n952</title>
<path fill="none" stroke="black" d="M733.65,-72.76C729.29,-64.28 723.85,-53.71 718.96,-44.2"/>
<polygon fill="black" stroke="black" points="721.99,-42.44 714.3,-35.15 715.77,-45.64 721.99,-42.44"/>
</g>
<!-- dummy^phi_n1__and_1__data__0__anchor__in&#45;&gt;dummy^and_1__fork_2__data__0__anchor__out -->
<g id="edge30" class="edge">
<title>dummy^phi_n1__and_1__data__0__anchor__in&#45;&gt;dummy^and_1__fork_2__data__0__anchor__out</title>
<path fill="none" stroke="#eeeeee" d="M431.56,-360.76C426,-352.11 419.03,-341.27 412.82,-331.6"/>
<polygon fill="#eeeeee" stroke="#eeeeee" points="415.73,-329.67 407.38,-323.15 409.84,-333.45 415.73,-329.67"/>
</g>
<!-- dummy^fork_2__xor_3__data__0__anchor__out -->
<g id="node33" class="node">
<title>dummy^fork_2__xor_3__data__0__anchor__out</title>
<ellipse fill="#eeeeee" stroke="#eeeeee" cx="405" cy="-162" rx="31.4" ry="18"/>
<text text-anchor="middle" x="405" y="-158.3" font-family="Times,serif" font-size="14.00" fill="#eeeeee">data</text>
</g>
<!-- dummy^and_1__fork_2__data__0__anchor__in&#45;&gt;dummy^fork_2__xor_3__data__0__anchor__out -->
<g id="edge32" class="edge">
<title>dummy^and_1__fork_2__data__0__anchor__in&#45;&gt;dummy^fork_2__xor_3__data__0__anchor__out</title>
<path fill="none" stroke="#eeeeee" d="M398.98,-215.7C399.86,-207.98 400.92,-198.71 401.9,-190.11"/>
<polygon fill="#eeeeee" stroke="#eeeeee" points="405.39,-190.44 403.05,-180.1 398.43,-189.64 405.39,-190.44"/>
</g>
<!-- dummy^fork_2__zext_2__data__0__anchor__out -->
<g id="node34" class="node">
<title>dummy^fork_2__zext_2__data__0__anchor__out</title>
<ellipse fill="#eeeeee" stroke="#eeeeee" cx="325" cy="-162" rx="31.4" ry="18"/>
<text text-anchor="middle" x="325" y="-158.3" font-family="Times,serif" font-size="14.00" fill="#eeeeee">data</text>
</g>
<!-- dummy^and_1__fork_2__data__0__anchor__in&#45;&gt;dummy^fork_2__zext_2__data__0__anchor__out -->
<g id="edge33" class="edge">
<title>dummy^and_1__fork_2__data__0__anchor__in&#45;&gt;dummy^fork_2__zext_2__data__0__anchor__out</title>
<path fill="none" stroke="#eeeeee" d="M381.73,-218.15C371.8,-208.5 358.68,-195.75 347.56,-184.94"/>
<polygon fill="#eeeeee" stroke="#eeeeee" points="349.86,-182.29 340.25,-177.82 344.98,-187.3 349.86,-182.29"/>
</g>
<!-- dummy^branch_1__phi_n0__valid__0__anchor__in -->
<g id="node35" class="node">
<title>dummy^branch_1__phi_n0__valid__0__anchor__in</title>
<ellipse fill="#ffc0ff" stroke="red" cx="425" cy="-594" rx="33.29" ry="18"/>
<text text-anchor="middle" x="425" y="-590.3" font-family="Times,serif" font-size="14.00" fill="red">valid</text>
</g>
<!-- dummy^branch_1__phi_n0__valid__0__anchor__in&#45;&gt;dummy^phi_n0__and_1__valid__0__anchor__out -->
<g id="edge34" class="edge">
<title>dummy^branch_1__phi_n0__valid__0__anchor__in&#45;&gt;dummy^phi_n0__and_1__valid__0__anchor__out</title>
<path fill="none" stroke="black" d="M435.44,-576.76C441,-568.11 447.97,-557.27 454.18,-547.6"/>
<polygon fill="black" stroke="black" points="457.16,-549.45 459.62,-539.15 451.27,-545.67 457.16,-549.45"/>
</g>
<!-- new_n940_ -->
<g id="node36" class="node">
<title>new_n940_</title>
<ellipse fill="#eeeeee" stroke="#eeeeee" cx="312" cy="-234" rx="27" ry="18"/>
</g>
<!-- dummy^branch_1__phi_n0__valid__0__anchor__in&#45;&gt;new_n940_ -->
<g id="edge35" class="edge">
<title>dummy^branch_1__phi_n0__valid__0__anchor__in&#45;&gt;new_n940_</title>
<path fill="none" stroke="#eeeeee" d="M413.34,-576.62C390.89,-544.07 342.11,-468.12 322,-396 309.3,-350.44 309,-294.91 310.27,-262.4"/>
<polygon fill="#eeeeee" stroke="#eeeeee" points="313.77,-262.46 310.75,-252.31 306.78,-262.13 313.77,-262.46"/>
</g>
<!-- new_n940_&#45;&gt;new_n939_ -->
<g id="edge77" class="edge">
<title>new_n940_&#45;&gt;new_n939_</title>
<path fill="none" stroke="#eeeeee" d="M288.84,-224.56C254.96,-212.21 191.73,-189.15 153,-175.03"/>
<polygon fill="#eeeeee" stroke="#eeeeee" points="153.84,-171.61 143.24,-171.47 151.44,-178.19 153.84,-171.61"/>
</g>
<!-- dummy^and_1__fork_2__valid__0__anchor__out -->
<g id="node39" class="node">
<title>dummy^and_1__fork_2__valid__0__anchor__out</title>
<ellipse fill="#eeeeee" stroke="#eeeeee" cx="964" cy="-378" rx="33.29" ry="18"/>
<text text-anchor="middle" x="964" y="-374.3" font-family="Times,serif" font-size="14.00" fill="#eeeeee">valid</text>
</g>
<!-- dummy^phi_n0__and_1__valid__0__anchor__in&#45;&gt;dummy^and_1__fork_2__valid__0__anchor__out -->
<g id="edge38" class="edge">
<title>dummy^phi_n0__and_1__valid__0__anchor__in&#45;&gt;dummy^and_1__fork_2__valid__0__anchor__out</title>
<path fill="none" stroke="#eeeeee" d="M1033.77,-434.5C1021.06,-424.39 1003.92,-410.75 989.81,-399.53"/>
<polygon fill="#eeeeee" stroke="#eeeeee" points="991.91,-396.73 981.91,-393.25 987.56,-402.21 991.91,-396.73"/>
</g>
<!-- dummy^phi_n1__and_1__ready__0__anchor__out -->
<g id="node40" class="node">
<title>dummy^phi_n1__and_1__ready__0__anchor__out</title>
<ellipse fill="#ffffc4" stroke="black" cx="1052" cy="-378" rx="37.09" ry="18"/>
<text text-anchor="middle" x="1052" y="-374.3" font-family="Times,serif" font-size="14.00">ready</text>
</g>
<!-- dummy^phi_n0__and_1__valid__0__anchor__in&#45;&gt;dummy^phi_n1__and_1__ready__0__anchor__out -->
<g id="edge39" class="edge">
<title>dummy^phi_n0__and_1__valid__0__anchor__in&#45;&gt;dummy^phi_n1__and_1__ready__0__anchor__out</title>
<path fill="none" stroke="black" d="M1052,-431.7C1052,-423.98 1052,-414.71 1052,-406.11"/>
<polygon fill="black" stroke="black" points="1055.5,-406.1 1052,-396.1 1048.5,-406.1 1055.5,-406.1"/>
</g>
<!-- n932&#45;&gt;new_n935_ -->
<g id="edge64" class="edge">
<title>n932&#45;&gt;new_n935_</title>
<path fill="none" stroke="#eeeeee" d="M463.19,-151.14C457.34,-148.66 450.98,-146.1 445,-144 392.51,-125.53 330.08,-108.97 292.01,-99.45"/>
<polygon fill="#eeeeee" stroke="#eeeeee" points="292.5,-95.96 281.95,-96.96 290.81,-102.76 292.5,-95.96"/>
</g>
<!-- dummy^and_1__fork_2__valid__0__anchor__in -->
<g id="node46" class="node">
<title>dummy^and_1__fork_2__valid__0__anchor__in</title>
<ellipse fill="#eeeeee" stroke="#eeeeee" cx="1288" cy="-306" rx="33.29" ry="18"/>
<text text-anchor="middle" x="1288" y="-302.3" font-family="Times,serif" font-size="14.00" fill="#eeeeee">valid</text>
</g>
<!-- dummy^and_1__fork_2__valid__0__anchor__out&#45;&gt;dummy^and_1__fork_2__valid__0__anchor__in -->
<g id="edge46" class="edge">
<title>dummy^and_1__fork_2__valid__0__anchor__out&#45;&gt;dummy^and_1__fork_2__valid__0__anchor__in</title>
<path fill="none" stroke="#eeeeee" stroke-width="2" d="M989.03,-365.92C994.55,-363.75 1000.41,-361.64 1006,-360 1089.31,-335.58 1189.87,-319.84 1245.6,-312.29"/>
<polygon fill="#eeeeee" stroke="#eeeeee" stroke-width="2" points="1246.34,-315.72 1255.79,-310.93 1245.42,-308.78 1246.34,-315.72"/>
<text text-anchor="middle" x="1065.06" y="-321.49" font-family="Times,serif" font-size="14.00" fill="#eeeeee">and_1 &#45;&gt; fork_2</text>
</g>
<!-- dummy^phi_n1__and_1__ready__0__anchor__in -->
<g id="node57" class="node">
<title>dummy^phi_n1__and_1__ready__0__anchor__in</title>
<ellipse fill="#f0f0f0" stroke="black" cx="967" cy="-306" rx="37.09" ry="18"/>
<text text-anchor="middle" x="967" y="-302.3" font-family="Times,serif" font-size="14.00">ready</text>
</g>
<!-- dummy^phi_n1__and_1__ready__0__anchor__out&#45;&gt;dummy^phi_n1__and_1__ready__0__anchor__in -->
<g id="edge65" class="edge">
<title>dummy^phi_n1__and_1__ready__0__anchor__out&#45;&gt;dummy^phi_n1__and_1__ready__0__anchor__in</title>
<path fill="none" stroke="blue" stroke-width="2" d="M1033.97,-362.15C1022.03,-352.32 1006.17,-339.26 992.88,-328.32"/>
<polygon fill="blue" stroke="blue" stroke-width="2" points="994.94,-325.48 985,-321.82 990.49,-330.88 994.94,-325.48"/>
<text text-anchor="middle" x="952.08" y="-345.87" font-family="Times,serif" font-size="14.00" fill="blue">phi_n1 &#45;&gt; and_1</text>
</g>
<!-- dummy^branch_0__phi_n1__valid__0__anchor__in -->
<g id="node41" class="node">
<title>dummy^branch_0__phi_n1__valid__0__anchor__in</title>
<ellipse fill="#f0f0f0" stroke="red" cx="882" cy="-594" rx="33.29" ry="18"/>
<text text-anchor="middle" x="882" y="-590.3" font-family="Times,serif" font-size="14.00" fill="red">valid</text>
</g>
<!-- dummy^branch_0__phi_n1__valid__0__anchor__in&#45;&gt;dummy^phi_n1__and_1__valid__0__anchor__out -->
<g id="edge40" class="edge">
<title>dummy^branch_0__phi_n1__valid__0__anchor__in&#45;&gt;dummy^phi_n1__and_1__valid__0__anchor__out</title>
<path fill="none" stroke="black" d="M889.11,-576.41C892.57,-568.34 896.82,-558.43 900.71,-549.35"/>
<polygon fill="black" stroke="black" points="904.01,-550.53 904.73,-539.96 897.58,-547.77 904.01,-550.53"/>
</g>
<!-- new_n973_ -->
<g id="node42" class="node">
<title>new_n973_</title>
<ellipse fill="#f0f0f0" stroke="black" cx="811" cy="-234" rx="27" ry="18"/>
</g>
<!-- dummy^branch_0__phi_n1__valid__0__anchor__in&#45;&gt;new_n973_ -->
<g id="edge41" class="edge">
<title>dummy^branch_0__phi_n1__valid__0__anchor__in&#45;&gt;new_n973_</title>
<path fill="none" stroke="black" d="M874,-576.47C863.02,-552.97 843.53,-508.27 834,-468 816.73,-395.07 812.41,-306.33 811.34,-262.39"/>
<polygon fill="black" stroke="black" points="814.83,-262.14 811.13,-252.21 807.84,-262.28 814.83,-262.14"/>
</g>
<!-- new_n973_&#45;&gt;new_n972_1_ -->
<g id="edge68" class="edge">
<title>new_n973_&#45;&gt;new_n972_1_</title>
<path fill="none" stroke="black" d="M794.07,-219.83C780.5,-209.27 761.24,-194.3 745.91,-182.37"/>
<polygon fill="black" stroke="black" points="747.89,-179.48 737.85,-176.11 743.6,-185.01 747.89,-179.48"/>
</g>
<!-- dummy^phi_n1__and_1__valid__0__anchor__in&#45;&gt;dummy^and_1__fork_2__valid__0__anchor__out -->
<g id="edge44" class="edge">
<title>dummy^phi_n1__and_1__valid__0__anchor__in&#45;&gt;dummy^and_1__fork_2__valid__0__anchor__out</title>
<path fill="none" stroke="#eeeeee" d="M894.23,-434.5C906.94,-424.39 924.08,-410.75 938.19,-399.53"/>
<polygon fill="#eeeeee" stroke="#eeeeee" points="940.44,-402.21 946.09,-393.25 936.09,-396.73 940.44,-402.21"/>
</g>
<!-- dummy^phi_n0__and_1__ready__0__anchor__out -->
<g id="node45" class="node">
<title>dummy^phi_n0__and_1__ready__0__anchor__out</title>
<ellipse fill="#eeeeee" stroke="#eeeeee" cx="876" cy="-378" rx="37.09" ry="18"/>
<text text-anchor="middle" x="876" y="-374.3" font-family="Times,serif" font-size="14.00" fill="#eeeeee">ready</text>
</g>
<!-- dummy^phi_n1__and_1__valid__0__anchor__in&#45;&gt;dummy^phi_n0__and_1__ready__0__anchor__out -->
<g id="edge45" class="edge">
<title>dummy^phi_n1__and_1__valid__0__anchor__in&#45;&gt;dummy^phi_n0__and_1__ready__0__anchor__out</title>
<path fill="none" stroke="#eeeeee" d="M876,-431.7C876,-423.98 876,-414.71 876,-406.11"/>
<polygon fill="#eeeeee" stroke="#eeeeee" points="879.5,-406.1 876,-396.1 872.5,-406.1 879.5,-406.1"/>
</g>
<!-- n957&#45;&gt;new_n968_ -->
<g id="edge72" class="edge">
<title>n957&#45;&gt;new_n968_</title>
<path fill="none" stroke="black" d="M942.92,-153.51C902.66,-140.98 821.58,-115.76 775.68,-101.48"/>
<polygon fill="black" stroke="black" points="776.49,-98.07 765.91,-98.44 774.41,-104.75 776.49,-98.07"/>
</g>
<!-- dummy^phi_n0__and_1__ready__0__anchor__in -->
<g id="node55" class="node">
<title>dummy^phi_n0__and_1__ready__0__anchor__in</title>
<ellipse fill="#eeeeee" stroke="#eeeeee" cx="550" cy="-306" rx="37.09" ry="18"/>
<text text-anchor="middle" x="550" y="-302.3" font-family="Times,serif" font-size="14.00" fill="#eeeeee">ready</text>
</g>
<!-- dummy^phi_n0__and_1__ready__0__anchor__out&#45;&gt;dummy^phi_n0__and_1__ready__0__anchor__in -->
<g id="edge60" class="edge">
<title>dummy^phi_n0__and_1__ready__0__anchor__out&#45;&gt;dummy^phi_n0__and_1__ready__0__anchor__in</title>
<path fill="none" stroke="#eeeeee" stroke-width="2" d="M842.64,-369.84C783.34,-357.1 659.6,-330.53 593.63,-316.37"/>
<polygon fill="#eeeeee" stroke="#eeeeee" stroke-width="2" points="594.06,-312.88 583.55,-314.2 592.59,-319.73 594.06,-312.88"/>
<text text-anchor="middle" x="655.49" y="-345.8" font-family="Times,serif" font-size="14.00" fill="#eeeeee">phi_n0 &#45;&gt; and_1</text>
</g>
<!-- dummy^and_1__fork_2__valid__0__anchor__in&#45;&gt;dummy^fork_2__xor_3__valid__0__anchor__out -->
<g id="edge48" class="edge">
<title>dummy^and_1__fork_2__valid__0__anchor__in&#45;&gt;dummy^fork_2__xor_3__valid__0__anchor__out</title>
<path fill="none" stroke="#eeeeee" d="M1272.38,-289.81C1262.56,-280.27 1249.74,-267.8 1238.8,-257.17"/>
<polygon fill="#eeeeee" stroke="#eeeeee" points="1241.2,-254.62 1231.59,-250.16 1236.32,-259.64 1241.2,-254.62"/>
</g>
<!-- dummy^and_1__fork_2__valid__0__anchor__in&#45;&gt;dummy^fork_2__zext_2__valid__0__anchor__out -->
<g id="edge47" class="edge">
<title>dummy^and_1__fork_2__valid__0__anchor__in&#45;&gt;dummy^fork_2__zext_2__valid__0__anchor__out</title>
<path fill="none" stroke="#eeeeee" d="M1313,-294.06C1340.04,-282.23 1383.34,-263.29 1413.59,-250.06"/>
<polygon fill="#eeeeee" stroke="#eeeeee" points="1415.15,-253.19 1422.91,-245.98 1412.35,-246.78 1415.15,-253.19"/>
</g>
<!-- new_n1063_ -->
<g id="node47" class="node">
<title>new_n1063_</title>
<ellipse fill="#eeeeee" stroke="#eeeeee" cx="1294" cy="-234" rx="27" ry="18"/>
</g>
<!-- dummy^and_1__fork_2__valid__0__anchor__in&#45;&gt;new_n1063_ -->
<g id="edge49" class="edge">
<title>dummy^and_1__fork_2__valid__0__anchor__in&#45;&gt;new_n1063_</title>
<path fill="none" stroke="#eeeeee" d="M1289.48,-287.7C1290.14,-279.98 1290.94,-270.71 1291.68,-262.11"/>
<polygon fill="#eeeeee" stroke="#eeeeee" points="1295.17,-262.37 1292.53,-252.1 1288.19,-261.77 1295.17,-262.37"/>
</g>
<!-- new_n1062_1_ -->
<g id="node54" class="node">
<title>new_n1062_1_</title>
<ellipse fill="#eeeeee" stroke="#eeeeee" cx="1313" cy="-162" rx="27" ry="18"/>
</g>
<!-- new_n1063_&#45;&gt;new_n1062_1_ -->
<g id="edge74" class="edge">
<title>new_n1063_&#45;&gt;new_n1062_1_</title>
<path fill="none" stroke="#eeeeee" d="M1298.6,-216.05C1300.75,-208.14 1303.35,-198.54 1305.76,-189.69"/>
<polygon fill="#eeeeee" stroke="#eeeeee" points="1309.2,-190.36 1308.44,-179.79 1302.45,-188.52 1309.2,-190.36"/>
</g>
<!-- dummy^fork_2__zext_2__ready__0__anchor__in -->
<g id="node48" class="node">
<title>dummy^fork_2__zext_2__ready__0__anchor__in</title>
<ellipse fill="#c0ffff" stroke="red" cx="1366" cy="-666" rx="37.09" ry="18"/>
<text text-anchor="middle" x="1366" y="-662.3" font-family="Times,serif" font-size="14.00" fill="red">ready</text>
</g>
<!-- dummy^fork_2__zext_2__ready__0__anchor__in&#45;&gt;new_n844_ -->
<g id="edge50" class="edge">
<title>dummy^fork_2__zext_2__ready__0__anchor__in&#45;&gt;new_n844_</title>
<path fill="none" stroke="black" d="M1368.72,-647.7C1369.93,-639.98 1371.39,-630.71 1372.74,-622.11"/>
<polygon fill="black" stroke="black" points="1376.22,-622.53 1374.31,-612.1 1369.3,-621.44 1376.22,-622.53"/>
</g>
<!-- dummy^and_1__fork_2__ready__0__anchor__in -->
<g id="node53" class="node">
<title>dummy^and_1__fork_2__ready__0__anchor__in</title>
<ellipse fill="#ffffc4" stroke="black" cx="964" cy="-450" rx="37.09" ry="18"/>
<text text-anchor="middle" x="964" y="-446.3" font-family="Times,serif" font-size="14.00">ready</text>
</g>
<!-- dummy^and_1__fork_2__ready__0__anchor__out&#45;&gt;dummy^and_1__fork_2__ready__0__anchor__in -->
<g id="edge56" class="edge">
<title>dummy^and_1__fork_2__ready__0__anchor__out&#45;&gt;dummy^and_1__fork_2__ready__0__anchor__in</title>
<path fill="none" stroke="blue" stroke-width="2" d="M1186.96,-513.81C1145.34,-504.49 1071.77,-487.15 1010,-468 1007.26,-467.15 1004.43,-466.23 1001.61,-465.27"/>
<polygon fill="blue" stroke="blue" stroke-width="2" points="1002.65,-461.92 992.06,-461.91 1000.33,-468.53 1002.65,-461.92"/>
<text text-anchor="middle" x="1032.94" y="-494.02" font-family="Times,serif" font-size="14.00" fill="blue">and_1 &#45;&gt; fork_2</text>
</g>
<!-- dummy^and_1__fork_2__ready__0__anchor__out&#45;&gt;new_n1062_1_ -->
<g id="edge57" class="edge">
<title>dummy^and_1__fork_2__ready__0__anchor__out&#45;&gt;new_n1062_1_</title>
<path fill="none" stroke="#eeeeee" d="M1232.86,-504.87C1257.56,-472.76 1310.86,-397.54 1330,-324 1342.09,-277.55 1337.42,-263.42 1330,-216 1328.62,-207.18 1326.02,-197.82 1323.26,-189.46"/>
<polygon fill="#eeeeee" stroke="#eeeeee" points="1326.51,-188.13 1319.89,-179.86 1319.9,-190.45 1326.51,-188.13"/>
</g>
<!-- dummy^fork_2__xor_3__ready__0__anchor__in -->
<g id="node51" class="node">
<title>dummy^fork_2__xor_3__ready__0__anchor__in</title>
<ellipse fill="#c0ffff" stroke="red" cx="1202" cy="-666" rx="37.09" ry="18"/>
<text text-anchor="middle" x="1202" y="-662.3" font-family="Times,serif" font-size="14.00" fill="red">ready</text>
</g>
<!-- dummy^fork_2__xor_3__ready__0__anchor__in&#45;&gt;new_n845_ -->
<g id="edge53" class="edge">
<title>dummy^fork_2__xor_3__ready__0__anchor__in&#45;&gt;new_n845_</title>
<path fill="none" stroke="black" d="M1204.22,-647.7C1205.22,-639.98 1206.41,-630.71 1207.51,-622.11"/>
<polygon fill="black" stroke="black" points="1211,-622.47 1208.8,-612.1 1204.05,-621.58 1211,-622.47"/>
</g>
<!-- dummy^and_1__fork_2__ready__0__anchor__in&#45;&gt;dummy^phi_n1__and_1__ready__0__anchor__out -->
<g id="edge59" class="edge">
<title>dummy^and_1__fork_2__ready__0__anchor__in&#45;&gt;dummy^phi_n1__and_1__ready__0__anchor__out</title>
<path fill="none" stroke="black" d="M982.66,-434.15C995.03,-424.32 1011.45,-411.26 1025.2,-400.32"/>
<polygon fill="black" stroke="black" points="1027.72,-402.79 1033.36,-393.82 1023.36,-397.31 1027.72,-402.79"/>
</g>
<!-- dummy^and_1__fork_2__ready__0__anchor__in&#45;&gt;dummy^phi_n0__and_1__ready__0__anchor__out -->
<g id="edge58" class="edge">
<title>dummy^and_1__fork_2__ready__0__anchor__in&#45;&gt;dummy^phi_n0__and_1__ready__0__anchor__out</title>
<path fill="none" stroke="#eeeeee" d="M945.34,-434.15C932.97,-424.32 916.55,-411.26 902.8,-400.32"/>
<polygon fill="#eeeeee" stroke="#eeeeee" points="904.64,-397.31 894.64,-393.82 900.28,-402.79 904.64,-397.31"/>
</g>
<!-- new_n1062_1_&#45;&gt;n1137 -->
<g id="edge76" class="edge">
<title>new_n1062_1_&#45;&gt;n1137</title>
<path fill="none" stroke="#eeeeee" d="M1319.4,-144.41C1322.51,-136.34 1326.33,-126.43 1329.83,-117.35"/>
<polygon fill="#eeeeee" stroke="#eeeeee" points="1333.13,-118.55 1333.46,-107.96 1326.6,-116.03 1333.13,-118.55"/>
</g>
<!-- new_n1062_1_&#45;&gt;n1142 -->
<g id="edge75" class="edge">
<title>new_n1062_1_&#45;&gt;n1142</title>
<path fill="none" stroke="#eeeeee" d="M1295.21,-148.16C1280.3,-137.41 1258.83,-121.91 1242,-109.76"/>
<polygon fill="#eeeeee" stroke="#eeeeee" points="1243.84,-106.77 1233.68,-103.76 1239.74,-112.45 1243.84,-106.77"/>
</g>
<!-- dummy^phi_n0__and_1__ready__0__anchor__in&#45;&gt;new_n940_ -->
<g id="edge62" class="edge">
<title>dummy^phi_n0__and_1__ready__0__anchor__in&#45;&gt;new_n940_</title>
<path fill="none" stroke="#eeeeee" d="M517.63,-297.09C479.06,-287.45 412.84,-270.17 357,-252 352.89,-250.66 348.6,-249.17 344.38,-247.64"/>
<polygon fill="#eeeeee" stroke="#eeeeee" points="345.34,-244.27 334.75,-244.06 342.9,-250.83 345.34,-244.27"/>
</g>
<!-- new_n937_1_ -->
<g id="node56" class="node">
<title>new_n937_1_</title>
<ellipse fill="#eeeeee" stroke="#eeeeee" cx="545" cy="-234" rx="27" ry="18"/>
</g>
<!-- dummy^phi_n0__and_1__ready__0__anchor__in&#45;&gt;new_n937_1_ -->
<g id="edge61" class="edge">
<title>dummy^phi_n0__and_1__ready__0__anchor__in&#45;&gt;new_n937_1_</title>
<path fill="none" stroke="#eeeeee" d="M548.76,-287.7C548.21,-279.98 547.55,-270.71 546.94,-262.11"/>
<polygon fill="#eeeeee" stroke="#eeeeee" points="550.43,-261.83 546.22,-252.1 543.44,-262.33 550.43,-261.83"/>
</g>
<!-- new_n937_1_&#45;&gt;n932 -->
<g id="edge63" class="edge">
<title>new_n937_1_&#45;&gt;n932</title>
<path fill="none" stroke="#eeeeee" d="M531.98,-217.81C523.96,-208.45 513.53,-196.28 504.53,-185.79"/>
<polygon fill="#eeeeee" stroke="#eeeeee" points="507.16,-183.47 497.99,-178.16 501.84,-188.03 507.16,-183.47"/>
</g>
<!-- dummy^phi_n1__and_1__ready__0__anchor__in&#45;&gt;new_n973_ -->
<g id="edge66" class="edge">
<title>dummy^phi_n1__and_1__ready__0__anchor__in&#45;&gt;new_n973_</title>
<path fill="none" stroke="black" d="M940.54,-293.13C913.36,-280.93 871.07,-261.95 842.26,-249.03"/>
<polygon fill="black" stroke="black" points="843.6,-245.79 833.05,-244.89 840.74,-252.18 843.6,-245.79"/>
</g>
<!-- new_n970_ -->
<g id="node58" class="node">
<title>new_n970_</title>
<ellipse fill="#f0f0f0" stroke="black" cx="967" cy="-234" rx="27" ry="18"/>
</g>
<!-- dummy^phi_n1__and_1__ready__0__anchor__in&#45;&gt;new_n970_ -->
<g id="edge67" class="edge">
<title>dummy^phi_n1__and_1__ready__0__anchor__in&#45;&gt;new_n970_</title>
<path fill="none" stroke="black" d="M967,-287.7C967,-279.98 967,-270.71 967,-262.11"/>
<polygon fill="black" stroke="black" points="970.5,-262.1 967,-252.1 963.5,-262.1 970.5,-262.1"/>
</g>
<!-- new_n970_&#45;&gt;n957 -->
<g id="edge71" class="edge">
<title>new_n970_&#45;&gt;n957</title>
<path fill="none" stroke="black" d="M967,-215.7C967,-207.98 967,-198.71 967,-190.11"/>
<polygon fill="black" stroke="black" points="970.5,-190.1 967,-180.1 963.5,-190.1 970.5,-190.1"/>
</g>
</g>
</svg>
